<svg width="1525" height="991" viewBox="0 0 1525 991" fill="none" xmlns="http://www.w3.org/2000/svg">
<path d="M431 491H5C2.79086 491 1 489.209 1 487V159" stroke="white"/>
<path d="M751 384V98C751 95.7909 749.209 94 747 94H403C400.791 94 399 95.7909 399 98V182" stroke="white"/>
<path d="M763 608V902C763 904.209 761.209 906 759 906H533C530.791 906 529 904.209 529 902V824" stroke="white"/>
<path d="M431 553H25C22.7909 553 21 554.791 21 557V695" stroke="white"/>
<path d="M1074 471H1520C1522.21 471 1524 469.209 1524 467V385" stroke="white"/>
<path d="M878 385V5.00001C878 2.79087 879.791 1 882 1H1172C1174.21 1 1176 2.79086 1176 5V115" stroke="white"/>
<path d="M1074 547H1461C1463.21 547 1465 548.791 1465 551V621" stroke="white"/>
<path d="M1003 608V986C1003 988.209 1004.79 990 1007 990H1194C1196.21 990 1198 988.209 1198 986V872" stroke="white"/>
<path d="M1520 160V232.198H1003V384" stroke="white"/>
</svg>
