<svg width="25" height="25" viewBox="0 0 25 25" fill="none" xmlns="http://www.w3.org/2000/svg">
<path d="M18.9149 2.5756C18.6641 2.59384 18.4179 2.65268 18.186 2.74982H18.1829C17.9602 2.8381 16.9016 3.28341 15.2922 3.95841L9.52506 6.38732C5.38678 8.1295 1.31881 9.84513 1.31881 9.84513L1.36725 9.82638C1.36725 9.82638 1.08678 9.91857 0.793809 10.1193C0.612815 10.2345 0.45707 10.3852 0.335997 10.5623C0.192247 10.7733 0.0766217 11.0959 0.11959 11.4295C0.189903 11.9936 0.555528 12.3318 0.818028 12.5186C1.08365 12.7076 1.33678 12.7959 1.33678 12.7959H1.34303L5.15787 14.0811C5.32897 14.6303 6.32037 17.8897 6.55865 18.6404C6.69928 19.0889 6.836 19.3693 7.00709 19.5834C7.0899 19.6928 7.18678 19.7842 7.30318 19.8576C7.3637 19.8928 7.42822 19.9206 7.49537 19.9404L7.45631 19.9311C7.46803 19.9342 7.4774 19.9436 7.486 19.9467C7.51725 19.9553 7.53834 19.9584 7.57818 19.9647C8.18209 20.1475 8.66725 19.7725 8.66725 19.7725L8.69459 19.7506L10.9469 17.6998L14.7219 20.5959L14.8079 20.6326C15.5946 20.9779 16.3915 20.7858 16.8126 20.4467C17.2368 20.1053 17.4016 19.6686 17.4016 19.6686L17.429 19.5983L20.3462 4.65372C20.429 4.28497 20.4501 3.93966 20.3587 3.6045C20.2644 3.26531 20.0468 2.97357 19.7485 2.78654C19.498 2.63428 19.2076 2.56079 18.9149 2.5756ZM18.836 4.17716C18.8329 4.22638 18.8422 4.22091 18.8204 4.31544V4.32404L15.9305 19.1131C15.918 19.1342 15.8969 19.1803 15.8391 19.2264C15.7782 19.2748 15.7297 19.3053 15.4758 19.2045L10.8587 15.6647L8.06959 18.2068L8.65553 14.4647L16.1993 7.43341C16.5102 7.14435 16.4063 7.08341 16.4063 7.08341C16.4282 6.72872 15.9368 6.9795 15.9368 6.9795L6.42428 12.8725L6.42115 12.8568L1.86178 11.3217V11.3186L1.85006 11.3162C1.85805 11.3136 1.86588 11.3104 1.8735 11.3068L1.8985 11.2943L1.92272 11.2858C1.92272 11.2858 5.99381 9.57013 10.1321 7.82794C12.204 6.95529 14.2915 6.07638 15.8969 5.39825C16.8491 4.99748 17.8022 4.59904 18.7563 4.20294C18.8204 4.17794 18.7899 4.17716 18.836 4.17716Z" fill="white"/>
</svg>
